<svg xmlns="http://www.w3.org/2000/svg" viewBox="0 0 516.04 55.41"><defs><style>.cls-1{fill:#fff;}</style></defs><title>アセット 1</title><g id="レイヤー_2" data-name="レイヤー 2"><g id="レイヤー_1-2" data-name="レイヤー 1"><path class="cls-1" d="M69.92,40.73,59.26,54.53H32.31C13.71,54.53,0,42.74,0,27.18S13.71.88,32.31.88H69.92l-10.66,14H32.31c-9,0-15.71,5.38-15.71,13.07s6.65,12.83,15.71,12.83Z"/><path class="cls-1" d="M152.43,27.66c0,19.17-13.15,27.75-39.21,27.75S74,46.83,74,27.66,87.08,0,113.22,0,152.43,8.5,152.43,27.66Zm-16.52,0c0-11.54-6-13.71-22.69-13.71s-22.7,2.17-22.7,13.71,6,13.8,22.7,13.8S135.91,39.21,135.91,27.66Z"/><path class="cls-1" d="M208.55,52.52,175.67,23V54.53H160.6V10c0-7.13,4.33-10,9.06-10,2,0,4,.48,6.66,2.89L209.19,32.4V.88h15.16V45.3c0,7.14-4.33,10.11-9.14,10.11C213.12,55.41,211.12,54.93,208.55,52.52Z"/><path class="cls-1" d="M281.83,52.52,249,23V54.53H233.88V10c0-7.13,4.33-10,9.06-10,2,0,4,.48,6.66,2.89L282.48,32.4V.88h15.15V45.3c0,7.14-4.33,10.11-9.14,10.11C286.4,55.41,284.4,54.93,281.83,52.52Z"/><path class="cls-1" d="M369.71,40.73l-10.66,13.8H307.41V.88h62.14l-10.74,14H324.09v6.42h42.49L357,33.44h-33v7.29Z"/><path class="cls-1" d="M443.64,40.73,433,54.53H406c-18.6,0-32.31-11.79-32.31-27.35S387.43.88,406,.88h37.61L433,14.83H406c-9,0-15.72,5.38-15.72,13.07S397,40.73,406,40.73Z"/><path class="cls-1" d="M516,.88l-10.75,14H486.13v39.7h-16.6V14.83H444.35L455.1.88Z"/></g></g></svg>